<svg width="158" height="20" viewBox="0 0 158 20" fill="none" xmlns="http://www.w3.org/2000/svg">
<path d="M5.81267 19.9633C4.70462 19.9633 3.71289 19.6786 2.83747 19.1093C1.96204 18.5399 1.27028 17.7135 0.762167 16.6299C0.254056 15.5464 0 14.2302 0 12.6814C0 11.1142 0.257117 9.79186 0.77135 8.71442C1.2917 7.63085 1.99265 6.81359 2.8742 6.26263C3.75574 5.70554 4.73829 5.427 5.82186 5.427C6.6483 5.427 7.32782 5.5678 7.86042 5.8494C8.39302 6.12489 8.81543 6.45853 9.12764 6.85032C9.43985 7.236 9.68167 7.60025 9.85308 7.94307H9.99082V0.909091H13.3242V19.7153H10.0551V17.4931H9.85308C9.68167 17.8359 9.43373 18.2002 9.10927 18.5859C8.78482 18.9654 8.35629 19.2899 7.82369 19.5592C7.29109 19.8286 6.62075 19.9633 5.81267 19.9633ZM6.74013 17.236C7.44414 17.236 8.04408 17.0462 8.53994 16.6667C9.03581 16.281 9.4123 15.7453 9.66942 15.0597C9.92654 14.374 10.0551 13.5751 10.0551 12.663C10.0551 11.7508 9.92654 10.9581 9.66942 10.2847C9.41843 9.61126 9.045 9.08785 8.54913 8.71442C8.05938 8.34099 7.45638 8.15427 6.74013 8.15427C5.99939 8.15427 5.38108 8.34711 4.88522 8.73278C4.38935 9.11846 4.01592 9.65106 3.76492 10.3306C3.51393 11.0101 3.38843 11.7876 3.38843 12.663C3.38843 13.5445 3.51393 14.3312 3.76492 15.023C4.02204 15.7086 4.39853 16.2504 4.8944 16.6483C5.39639 17.0401 6.01163 17.236 6.74013 17.236Z" fill="#080808"/>
<path d="M16.8664 19.7153V5.61065H20.1905V19.7153H16.8664ZM18.5376 3.60882C18.0112 3.60882 17.5582 3.43434 17.1786 3.0854C16.7991 2.73033 16.6093 2.30487 16.6093 1.809C16.6093 1.30701 16.7991 0.881542 17.1786 0.532598C17.5582 0.177532 18.0112 0 18.5376 0C19.0702 0 19.5233 0.177532 19.8967 0.532598C20.2762 0.881542 20.466 1.30701 20.466 1.809C20.466 2.30487 20.2762 2.73033 19.8967 3.0854C19.5233 3.43434 19.0702 3.60882 18.5376 3.60882Z" fill="#080808"/>
<path d="M36.2075 5.61065L31.1846 19.7153H27.5115L22.4885 5.61065H26.0331L29.2746 16.0882H29.4215L32.6722 5.61065H36.2075Z" fill="#080808"/>
<path d="M38.5078 19.7153V5.61065H41.832V19.7153H38.5078ZM40.1791 3.60882C39.6526 3.60882 39.1996 3.43434 38.82 3.0854C38.4405 2.73033 38.2507 2.30487 38.2507 1.809C38.2507 1.30701 38.4405 0.881542 38.82 0.532598C39.1996 0.177532 39.6526 0 40.1791 0C40.7117 0 41.1647 0.177532 41.5381 0.532598C41.9177 0.881542 42.1074 1.30701 42.1074 1.809C42.1074 2.30487 41.9177 2.73033 41.5381 3.0854C41.1647 3.43434 40.7117 3.60882 40.1791 3.60882Z" fill="#080808"/>
<path d="M50.4844 19.9633C49.3763 19.9633 48.3846 19.6786 47.5092 19.1093C46.6338 18.5399 45.942 17.7135 45.4339 16.6299C44.9258 15.5464 44.6717 14.2302 44.6717 12.6814C44.6717 11.1142 44.9288 9.79186 45.4431 8.71442C45.9634 7.63085 46.6644 6.81359 47.5459 6.26263C48.4275 5.70554 49.41 5.427 50.4936 5.427C51.32 5.427 51.9995 5.5678 52.5321 5.8494C53.0647 6.12489 53.4871 6.45853 53.7994 6.85032C54.1116 7.236 54.3534 7.60025 54.5248 7.94307H54.6625V0.909091H57.9959V19.7153H54.7268V17.4931H54.5248C54.3534 17.8359 54.1054 18.2002 53.781 18.5859C53.4565 18.9654 53.028 19.2899 52.4954 19.5592C51.9628 19.8286 51.2925 19.9633 50.4844 19.9633ZM51.4118 17.236C52.1159 17.236 52.7158 17.0462 53.2117 16.6667C53.7075 16.281 54.084 15.7453 54.3411 15.0597C54.5983 14.374 54.7268 13.5751 54.7268 12.663C54.7268 11.7508 54.5983 10.9581 54.3411 10.2847C54.0901 9.61126 53.7167 9.08785 53.2208 8.71442C52.7311 8.34099 52.1281 8.15427 51.4118 8.15427C50.6711 8.15427 50.0528 8.34711 49.5569 8.73278C49.0611 9.11846 48.6876 9.65106 48.4366 10.3306C48.1856 11.0101 48.0601 11.7876 48.0601 12.663C48.0601 13.5445 48.1856 14.3312 48.4366 15.023C48.6938 15.7086 49.0702 16.2504 49.5661 16.6483C50.0681 17.0401 50.6833 17.236 51.4118 17.236Z" fill="#080808"/>
<path d="M61.5381 19.7153V5.61065H64.8623V19.7153H61.5381ZM63.2094 3.60882C62.6829 3.60882 62.2299 3.43434 61.8503 3.0854C61.4708 2.73033 61.281 2.30487 61.281 1.809C61.281 1.30701 61.4708 0.881542 61.8503 0.532598C62.2299 0.177532 62.6829 0 63.2094 0C63.742 0 64.195 0.177532 64.5684 0.532598C64.948 0.881542 65.1377 1.30701 65.1377 1.809C65.1377 2.30487 64.948 2.73033 64.5684 3.0854C64.195 3.43434 63.742 3.60882 63.2094 3.60882Z" fill="#080808"/>
<path d="M68.2805 19.7153V5.61065H71.5037V7.96143H71.6506C71.9077 7.14723 72.3485 6.51974 72.9729 6.07897C73.6035 5.63208 74.3228 5.40863 75.1309 5.40863C75.3145 5.40863 75.5196 5.41781 75.7461 5.43618C75.9787 5.44842 76.1716 5.46985 76.3246 5.50046V8.55831C76.1838 8.50934 75.9604 8.46648 75.6543 8.42975C75.3543 8.3869 75.0635 8.36547 74.7819 8.36547C74.1758 8.36547 73.631 8.49709 73.1474 8.76033C72.6699 9.01745 72.2934 9.37557 72.0179 9.83471C71.7424 10.2938 71.6047 10.8234 71.6047 11.4233V19.7153H68.2805Z" fill="#080808"/>
<path d="M86.4348 5.61065V8.18182H78.0969V5.61065H86.4348ZM80.1814 19.7153V4.27915C80.1814 3.33027 80.3773 2.54056 80.7691 1.91001C81.167 1.27946 81.6996 0.808081 82.3669 0.495868C83.0341 0.183655 83.7749 0.0275473 84.5891 0.0275473C85.1645 0.0275473 85.6757 0.0734614 86.1226 0.16529C86.5695 0.257117 86.9001 0.339761 87.1143 0.413223L86.4532 2.98439C86.3124 2.94154 86.1348 2.89868 85.9206 2.85583C85.7063 2.80686 85.4676 2.78237 85.2043 2.78237C84.586 2.78237 84.1483 2.93235 83.8912 3.23232C83.6402 3.52617 83.5147 3.94858 83.5147 4.49954V19.7153H80.1814Z" fill="#080808"/>
<path d="M92.6171 20C91.7233 20 90.9183 19.8408 90.202 19.5225C89.4919 19.198 88.9287 18.7205 88.5124 18.09C88.1022 17.4594 87.8972 16.682 87.8972 15.7576C87.8972 14.9617 88.0441 14.3036 88.3379 13.7833C88.6318 13.2629 89.0327 12.8466 89.5409 12.5344C90.049 12.2222 90.6214 11.9865 91.258 11.8274C91.9008 11.6621 92.565 11.5427 93.2507 11.4692C94.0771 11.3835 94.7475 11.307 95.2617 11.2397C95.7759 11.1662 96.1494 11.056 96.382 10.9091C96.6207 10.756 96.7401 10.5204 96.7401 10.202V10.1469C96.7401 9.45516 96.535 8.9195 96.1249 8.53994C95.7147 8.16039 95.124 7.97061 94.3526 7.97061C93.5384 7.97061 92.8926 8.14815 92.4151 8.50321C91.9437 8.85828 91.6253 9.27763 91.4601 9.76125L88.3563 9.32048C88.6012 8.46342 89.0052 7.74717 89.5684 7.17172C90.1316 6.59014 90.8203 6.15549 91.6345 5.86777C92.4487 5.57392 93.3486 5.427 94.3342 5.427C95.0138 5.427 95.6902 5.50658 96.3636 5.66575C97.037 5.82492 97.6523 6.08815 98.2094 6.45546C98.7664 6.81665 99.2133 7.30946 99.55 7.93388C99.8929 8.55831 100.064 9.33884 100.064 10.2755V19.7153H96.8687V17.7778H96.7585C96.5565 18.1696 96.2718 18.5369 95.9045 18.8797C95.5433 19.2164 95.0872 19.4888 94.5363 19.697C93.9914 19.899 93.3517 20 92.6171 20ZM93.4803 17.5574C94.1475 17.5574 94.726 17.4258 95.2158 17.1625C95.7055 16.8932 96.082 16.5381 96.3453 16.0973C96.6146 15.6566 96.7493 15.176 96.7493 14.6556V12.9936C96.6452 13.0793 96.4677 13.1589 96.2167 13.2323C95.9718 13.3058 95.6964 13.3701 95.3903 13.4252C95.0842 13.4803 94.7811 13.5292 94.4812 13.5721C94.1812 13.6149 93.921 13.6517 93.7006 13.6823C93.2048 13.7496 92.7609 13.8598 92.3691 14.0129C91.9773 14.1659 91.6682 14.3802 91.4417 14.6556C91.2152 14.925 91.1019 15.274 91.1019 15.7025C91.1019 16.3147 91.3254 16.7769 91.7723 17.0891C92.2192 17.4013 92.7885 17.5574 93.4803 17.5574Z" fill="#080808"/>
<path d="M110.45 5.61065V8.18182H102.342V5.61065H110.45ZM104.343 2.2314H107.668V15.4729C107.668 15.9198 107.735 16.2626 107.87 16.5014C108.01 16.734 108.194 16.8932 108.421 16.9789C108.647 17.0646 108.898 17.1074 109.174 17.1074C109.382 17.1074 109.571 17.0921 109.743 17.0615C109.92 17.0309 110.055 17.0034 110.147 16.9789L110.707 19.5776C110.53 19.6388 110.275 19.7062 109.945 19.7796C109.62 19.8531 109.223 19.8959 108.751 19.9082C107.919 19.9327 107.169 19.8072 106.501 19.5317C105.834 19.2501 105.305 18.8154 104.913 18.2277C104.527 17.64 104.337 16.9054 104.343 16.0239V2.2314Z" fill="#080808"/>
<path d="M122.22 13.7833V5.61065H125.544V19.7153H122.321V17.2084H122.174C121.856 17.9982 121.332 18.644 120.604 19.146C119.881 19.648 118.991 19.899 117.932 19.899C117.007 19.899 116.19 19.6939 115.48 19.2837C114.776 18.8675 114.225 18.2645 113.827 17.4747C113.429 16.6789 113.23 15.7178 113.23 14.5914V5.61065H116.554V14.0771C116.554 14.9709 116.799 15.6811 117.289 16.2075C117.779 16.734 118.421 16.9972 119.217 16.9972C119.707 16.9972 120.181 16.8779 120.64 16.6391C121.1 16.4004 121.476 16.0453 121.77 15.5739C122.07 15.0964 122.22 14.4995 122.22 13.7833Z" fill="#080808"/>
<path d="M128.962 19.7153V5.61065H132.185V7.96143H132.332C132.59 7.14723 133.03 6.51974 133.655 6.07897C134.285 5.63208 135.005 5.40863 135.813 5.40863C135.996 5.40863 136.201 5.41781 136.428 5.43618C136.661 5.44842 136.853 5.46985 137.006 5.50046V8.55831C136.866 8.50934 136.642 8.46648 136.336 8.42975C136.036 8.3869 135.745 8.36547 135.464 8.36547C134.858 8.36547 134.313 8.49709 133.829 8.76033C133.352 9.01745 132.975 9.37557 132.7 9.83471C132.424 10.2938 132.286 10.8234 132.286 11.4233V19.7153H128.962Z" fill="#080808"/>
<path d="M143.021 20C142.127 20 141.322 19.8408 140.606 19.5225C139.896 19.198 139.333 18.7205 138.916 18.09C138.506 17.4594 138.301 16.682 138.301 15.7576C138.301 14.9617 138.448 14.3036 138.742 13.7833C139.036 13.2629 139.437 12.8466 139.945 12.5344C140.453 12.2222 141.025 11.9865 141.662 11.8274C142.305 11.6621 142.969 11.5427 143.655 11.4692C144.481 11.3835 145.152 11.307 145.666 11.2397C146.18 11.1662 146.553 11.056 146.786 10.9091C147.025 10.756 147.144 10.5204 147.144 10.202V10.1469C147.144 9.45516 146.939 8.9195 146.529 8.53994C146.119 8.16039 145.528 7.97061 144.757 7.97061C143.942 7.97061 143.297 8.14815 142.819 8.50321C142.348 8.85828 142.029 9.27763 141.864 9.76125L138.76 9.32048C139.005 8.46342 139.409 7.74717 139.972 7.17172C140.536 6.59014 141.224 6.15549 142.039 5.86777C142.853 5.57392 143.753 5.427 144.738 5.427C145.418 5.427 146.094 5.50658 146.768 5.66575C147.441 5.82492 148.056 6.08815 148.613 6.45546C149.17 6.81665 149.617 7.30946 149.954 7.93388C150.297 8.55831 150.468 9.33884 150.468 10.2755V19.7153H147.273V17.7778H147.163C146.961 18.1696 146.676 18.5369 146.309 18.8797C145.947 19.2164 145.491 19.4888 144.94 19.697C144.395 19.899 143.756 20 143.021 20ZM143.884 17.5574C144.552 17.5574 145.13 17.4258 145.62 17.1625C146.11 16.8932 146.486 16.5381 146.749 16.0973C147.019 15.6566 147.153 15.176 147.153 14.6556V12.9936C147.049 13.0793 146.872 13.1589 146.621 13.2323C146.376 13.3058 146.1 13.3701 145.794 13.4252C145.488 13.4803 145.185 13.5292 144.885 13.5721C144.585 13.6149 144.325 13.6517 144.105 13.6823C143.609 13.7496 143.165 13.8598 142.773 14.0129C142.381 14.1659 142.072 14.3802 141.846 14.6556C141.619 14.925 141.506 15.274 141.506 15.7025C141.506 16.3147 141.729 16.7769 142.176 17.0891C142.623 17.4013 143.193 17.5574 143.884 17.5574Z" fill="#080808"/>
<path d="M155.859 19.9174C155.301 19.9174 154.824 19.7215 154.426 19.3297C154.028 18.9379 153.832 18.4604 153.838 17.8972C153.832 17.3462 154.028 16.8748 154.426 16.483C154.824 16.0912 155.301 15.8953 155.859 15.8953C156.397 15.8953 156.866 16.0912 157.264 16.483C157.668 16.8748 157.873 17.3462 157.879 17.8972C157.873 18.2706 157.775 18.6103 157.585 18.9164C157.401 19.2225 157.156 19.4674 156.85 19.6511C156.55 19.8286 156.22 19.9174 155.859 19.9174Z" fill="#080808"/>
<path fill-rule="evenodd" clip-rule="evenodd" d="M154.426 19.3297C154.824 19.7215 155.301 19.9174 155.859 19.9174C156.22 19.9174 156.55 19.8286 156.85 19.6511C157.156 19.4674 157.401 19.2225 157.585 18.9164C157.775 18.6104 157.873 18.2706 157.879 17.8972C157.873 17.3462 157.668 16.8748 157.264 16.483C156.866 16.0912 156.397 15.8953 155.859 15.8953C155.301 15.8953 154.824 16.0912 154.426 16.483C154.028 16.8748 153.832 17.3462 153.838 17.8972C153.832 18.4604 154.028 18.9379 154.426 19.3297Z" fill="white"/>
</svg>
